<svg width="45" height="45" viewBox="0 0 45 45" fill="none" xmlns="http://www.w3.org/2000/svg">
<path d="M43.2875 0H37.3429C36.2838 0.000381722 35.2536 0.345656 34.4082 0.983596L15.9904 14.8829C15.692 15.1084 15.6323 15.5481 15.8596 15.845L37.7657 44.3317C37.9254 44.5397 38.1307 44.7081 38.3659 44.824C38.6011 44.9399 38.8598 45.0001 39.122 45H43.2875C43.7417 45 44.1774 44.8195 44.4986 44.4983C44.8198 44.1771 45.0002 43.7415 45.0002 43.2872V1.71099C44.9998 1.25704 44.8191 0.821851 44.4979 0.501029C44.1768 0.180207 43.7414 -2.48348e-07 43.2875 0Z" fill="#FFC531"/>
<path d="M8.675 21.2575C8.56522 21.1136 8.40293 21.0191 8.22364 20.9946C8.04434 20.9701 7.86264 21.0176 7.71828 21.1267L0 26.9494V43.2872C-2.48348e-07 43.7411 0.180207 44.1765 0.501029 44.4977C0.821851 44.8188 1.25704 44.9995 1.71099 45H25.3603C25.4874 44.9988 25.6117 44.9623 25.7192 44.8945C25.8267 44.8267 25.9132 44.7302 25.969 44.616C26.0248 44.5018 26.0477 44.3743 26.0351 44.2478C26.0226 44.1214 25.975 44.0009 25.8978 43.8999L8.675 21.2575Z" fill="#004A80"/>
<path d="M1.09826 16.8054L21.5585 1.22905C22.0734 0.837261 21.7632 -0.00274071 21.1411 6.72324e-06H1.71099C1.25735 0.000480992 0.822432 0.180898 0.501662 0.501669C0.180891 0.822439 0.000474269 1.25736 0 1.711L0 16.2607C0.000342467 16.8021 0.654929 17.142 1.09826 16.8054Z" fill="#18A6F6"/>
</svg>
