<svg width="183" height="45" viewBox="0 0 183 45" fill="none" xmlns="http://www.w3.org/2000/svg">
<path d="M72.096 30H69L64.338 23.484V30H61.62V17.148H64.338V23.376L68.946 17.148H71.844L67.164 23.322L72.096 30Z" fill="#001328"/>
<path d="M77.6377 17.148C79.2937 17.148 80.4997 17.508 81.2557 18.228C82.0237 18.936 82.4077 19.914 82.4077 21.162C82.4077 21.918 82.2517 22.62 81.9397 23.268C81.6277 23.916 81.1057 24.438 80.3737 24.834C79.6537 25.23 78.6697 25.428 77.4217 25.428H76.2517V30H73.5337V17.148H77.6377ZM77.4937 19.38H76.2517V23.196H77.1517C77.9197 23.196 78.5257 23.046 78.9697 22.746C79.4257 22.434 79.6537 21.936 79.6537 21.252C79.6537 20.004 78.9337 19.38 77.4937 19.38Z" fill="#001328"/>
<path d="M92.0545 30H84.6565V17.148H92.0545V19.38H87.3745V22.206H91.7305V24.438H87.3745V27.75H92.0545V30Z" fill="#001328"/>
<path d="M104.611 17.148V27.732H106.321V33.7439H103.693V30H95.6467V33.7439H93.0187V27.732H94.0087C94.4647 26.844 94.8907 25.884 95.2867 24.852C95.6827 23.82 96.0367 22.674 96.3487 21.414C96.6607 20.154 96.9187 18.732 97.1227 17.148H104.611ZM101.893 19.416H99.2827C99.1747 20.256 99.0007 21.156 98.7607 22.116C98.5327 23.076 98.2567 24.042 97.9327 25.014C97.6087 25.974 97.2547 26.88 96.8707 27.732H101.893V19.416Z" fill="#001328"/>
<path d="M108.115 17.148H110.563V23.358C110.563 23.658 110.557 23.994 110.545 24.366C110.533 24.738 110.521 25.104 110.509 25.464C110.497 25.812 110.485 26.118 110.473 26.382C110.461 26.634 110.449 26.808 110.437 26.904H110.491L116.431 17.148H119.689V30H117.259V23.826C117.259 23.502 117.265 23.148 117.277 22.764C117.289 22.368 117.301 21.99 117.313 21.63C117.337 21.27 117.355 20.958 117.367 20.694C117.391 20.418 117.409 20.238 117.421 20.154H117.349L111.391 30H108.115V17.148Z" fill="#001328"/>
<path d="M127.703 30H124.985V19.416H121.493V17.148H131.195V19.416H127.703V30Z" fill="#001328"/>
<path d="M144.309 23.556C144.309 24.888 144.087 26.052 143.643 27.048C143.211 28.032 142.539 28.8 141.627 29.352C140.727 29.904 139.581 30.18 138.189 30.18C136.797 30.18 135.645 29.904 134.733 29.352C133.833 28.8 133.161 28.026 132.717 27.03C132.285 26.034 132.069 24.87 132.069 23.538C132.069 22.206 132.285 21.048 132.717 20.064C133.161 19.08 133.833 18.318 134.733 17.778C135.645 17.226 136.803 16.95 138.207 16.95C139.599 16.95 140.745 17.226 141.645 17.778C142.545 18.318 143.211 19.086 143.643 20.082C144.087 21.066 144.309 22.224 144.309 23.556ZM134.931 23.556C134.931 24.9 135.189 25.962 135.705 26.742C136.221 27.51 137.049 27.894 138.189 27.894C139.353 27.894 140.187 27.51 140.691 26.742C141.195 25.962 141.447 24.9 141.447 23.556C141.447 22.212 141.195 21.156 140.691 20.388C140.187 19.608 139.359 19.218 138.207 19.218C137.055 19.218 136.221 19.608 135.705 20.388C135.189 21.156 134.931 22.212 134.931 23.556Z" fill="#001328"/>
<path d="M157.322 30H154.604V24.456H149.51V30H146.792V17.148H149.51V22.188H154.604V17.148H157.322V30Z" fill="#001328"/>
<path d="M170.689 17.148L166.711 26.238C166.351 27.066 165.967 27.774 165.559 28.362C165.151 28.95 164.635 29.4 164.011 29.712C163.399 30.024 162.589 30.18 161.581 30.18C161.269 30.18 160.927 30.156 160.555 30.108C160.183 30.06 159.841 29.994 159.529 29.91V27.57C159.817 27.69 160.129 27.774 160.465 27.822C160.813 27.87 161.143 27.894 161.455 27.894C162.055 27.894 162.487 27.75 162.751 27.462C163.015 27.162 163.225 26.802 163.381 26.382L158.935 17.148H161.815L164.209 22.71C164.293 22.89 164.407 23.148 164.551 23.484C164.695 23.808 164.803 24.084 164.875 24.312H164.965C165.037 24.096 165.139 23.814 165.271 23.466C165.415 23.118 165.541 22.812 165.649 22.548L167.881 17.148H170.689Z" fill="#001328"/>
<path d="M177.409 19.236C176.365 19.236 175.567 19.626 175.015 20.406C174.463 21.186 174.187 22.254 174.187 23.61C174.187 24.978 174.439 26.04 174.943 26.796C175.459 27.54 176.281 27.912 177.409 27.912C177.925 27.912 178.447 27.852 178.975 27.732C179.503 27.612 180.073 27.444 180.685 27.228V29.514C180.121 29.742 179.563 29.91 179.011 30.018C178.459 30.126 177.841 30.18 177.157 30.18C175.825 30.18 174.733 29.91 173.881 29.37C173.029 28.818 172.399 28.05 171.991 27.066C171.583 26.07 171.379 24.912 171.379 23.592C171.379 22.296 171.613 21.15 172.081 20.154C172.549 19.158 173.227 18.378 174.115 17.814C175.015 17.25 176.113 16.968 177.409 16.968C178.045 16.968 178.681 17.052 179.317 17.22C179.965 17.376 180.583 17.592 181.171 17.868L180.289 20.082C179.809 19.854 179.323 19.656 178.831 19.488C178.351 19.32 177.877 19.236 177.409 19.236Z" fill="#001328"/>
<path d="M43.2875 0H37.3429C36.2838 0.000381722 35.2536 0.345656 34.4082 0.983596L15.9904 14.8829C15.692 15.1084 15.6323 15.5481 15.8596 15.845L37.7657 44.3317C37.9254 44.5397 38.1307 44.7081 38.3659 44.824C38.6011 44.9399 38.8598 45.0001 39.122 45H43.2875C43.7417 45 44.1774 44.8195 44.4986 44.4983C44.8198 44.1771 45.0002 43.7415 45.0002 43.2872V1.71099C44.9998 1.25704 44.8191 0.821851 44.4979 0.501029C44.1768 0.180207 43.7414 -2.48348e-07 43.2875 0Z" fill="#FFC531"/>
<path d="M8.675 21.2575C8.56522 21.1136 8.40293 21.0191 8.22364 20.9946C8.04434 20.9701 7.86264 21.0176 7.71828 21.1267L0 26.9494V43.2872C-2.48348e-07 43.7411 0.180207 44.1765 0.501029 44.4977C0.821851 44.8188 1.25704 44.9995 1.71099 45H25.3603C25.4874 44.9988 25.6117 44.9623 25.7192 44.8945C25.8267 44.8267 25.9132 44.7302 25.969 44.616C26.0248 44.5018 26.0477 44.3743 26.0351 44.2478C26.0226 44.1214 25.975 44.0009 25.8978 43.8999L8.675 21.2575Z" fill="#004A80"/>
<path d="M1.09826 16.8054L21.5585 1.22905C22.0734 0.837261 21.7632 -0.00274071 21.1411 6.72324e-06H1.71099C1.25735 0.000480992 0.822432 0.180898 0.501662 0.501669C0.180891 0.822439 0.000474269 1.25736 0 1.711L0 16.2607C0.000342467 16.8021 0.654929 17.142 1.09826 16.8054Z" fill="#18A6F6"/>
</svg>
