<?xml version="1.0" standalone="no"?>
<!DOCTYPE svg PUBLIC "-//W3C//DTD SVG 20010904//EN"
 "http://www.w3.org/TR/2001/REC-SVG-20010904/DTD/svg10.dtd">
<svg version="1.0" xmlns="http://www.w3.org/2000/svg"
 width="700.000000pt" height="700.000000pt" viewBox="0 0 700.000000 700.000000"
 preserveAspectRatio="xMidYMid meet">
<metadata>
Created by potrace 1.11, written by Peter Selinger 2001-2013
</metadata>
<g transform="translate(0.000000,700.000000) scale(0.100000,-0.100000)"
fill="#000000" stroke="none">
<path d="M200 6993 c-79 -27 -136 -75 -172 -143 l-23 -45 -3 -1175 c-2 -847 1
-1183 9 -1202 22 -54 96 -79 146 -48 16 9 247 183 514 387 266 203 540 411
609 463 68 52 131 101 140 107 17 14 294 225 560 426 96 72 181 137 190 144
16 13 314 241 370 283 18 14 66 50 105 80 39 30 85 65 101 77 362 273 613 468
628 487 37 48 12 135 -45 155 -23 8 -464 11 -1573 10 -848 0 -1548 -3 -1556
-6z"/>
<path d="M5636 6979 c-144 -35 -205 -73 -629 -393 -219 -166 -411 -310 -427
-321 -16 -11 -100 -74 -187 -140 -174 -133 -544 -412 -952 -720 -817 -616
-948 -715 -968 -737 -26 -27 -32 -83 -13 -118 7 -13 54 -77 104 -141 50 -65
137 -177 193 -251 265 -344 712 -926 922 -1198 74 -96 162 -211 195 -255 34
-44 67 -86 73 -95 7 -8 107 -139 223 -290 116 -151 217 -282 223 -290 7 -8 26
-33 42 -55 17 -22 37 -49 47 -60 9 -11 52 -67 97 -125 44 -58 84 -110 88 -115
4 -6 21 -28 37 -50 17 -22 32 -42 36 -45 3 -3 32 -41 66 -85 355 -470 1101
-1429 1124 -1445 68 -48 87 -50 494 -48 357 3 384 4 421 23 63 31 118 93 138
154 16 50 17 251 17 3321 0 3690 8 3332 -80 3421 -80 80 -68 79 -674 78 -484
-1 -538 -3 -610 -20z"/>
<path d="M1239 3730 c-21 -6 -125 -76 -149 -100 -3 -3 -122 -93 -265 -200
-143 -107 -264 -198 -270 -202 -5 -4 -23 -18 -40 -31 -16 -13 -131 -100 -255
-193 -124 -92 -233 -175 -243 -183 -16 -15 -17 -86 -17 -1307 0 -1462 -6
-1346 82 -1435 86 -86 -99 -79 2024 -76 l1884 2 26 26 c15 16 28 41 31 65 5
40 -9 68 -79 155 -15 19 -146 192 -292 384 -147 193 -341 449 -434 570 -92
121 -234 307 -315 415 -81 107 -153 202 -160 210 -7 8 -68 89 -137 180 -68 91
-127 167 -130 170 -3 3 -17 21 -30 40 -13 19 -27 37 -30 40 -3 3 -32 41 -65
85 -33 44 -62 82 -65 85 -3 3 -17 21 -30 40 -14 19 -35 46 -47 60 -13 14 -23
28 -23 31 0 3 -8 15 -18 27 -10 11 -99 127 -197 257 -99 131 -214 281 -255
335 -41 54 -142 186 -224 294 -82 108 -159 208 -170 221 -26 30 -71 45 -107
35z"/>
</g>
</svg>
